<svg width="201" height="201" viewBox="0 0 201 201" fill="none" xmlns="http://www.w3.org/2000/svg">
<path d="M200.907 100.466C200.907 118.805 195.994 136.002 187.397 150.807C187.074 151.367 186.729 151.928 186.384 152.488C185.587 153.824 184.747 155.16 183.863 156.453C183.497 156.992 183.131 157.53 182.721 158.069C169.621 176.839 150.228 190.847 127.646 197.204C127.172 197.333 126.677 197.463 126.203 197.592C117.993 199.769 109.353 200.932 100.454 200.932C65.7409 200.932 35.1221 183.326 17.1301 156.539C15.4279 154.061 13.8549 151.475 12.4112 148.846C4.50338 134.494 0 118.008 0 100.466C0 44.9749 44.9693 0 100.454 0C155.938 0 200.907 44.9749 200.907 100.466Z" fill="#EDDDD6"/>
<path d="M57.3915 86.773C57.3915 86.773 46.6287 29.6677 88.4111 19.2138C130.194 8.7599 132.708 68.0676 132.708 68.0676C132.708 68.0676 178.177 76.72 178.475 120.941C178.845 176.208 125.436 166.918 125.436 166.918L74.8492 146.311C74.8492 146.311 24.1806 118.714 57.3915 86.773Z" fill="black"/>
<path d="M182.721 158.069C169.62 176.839 150.228 190.847 127.646 197.204C127.172 197.333 126.677 197.463 126.202 197.592C117.993 199.768 109.352 200.932 100.453 200.932C65.7406 200.932 35.1219 183.326 17.1299 156.539C30.6185 138.092 47.5332 124.128 59.0395 119.171C76.0618 111.844 103.061 106.931 127.991 114.064C128.056 114.086 128.142 114.086 128.228 114.107C135.726 116.262 143.009 119.495 149.797 124.085C164.471 133.998 175.158 145.505 182.721 158.069Z" fill="#F7734F"/>
<path d="M80.7227 96.7228L80.727 97.3327L81.2398 108.84L81.6061 117.863C81.6061 117.863 80.8347 119.962 91.339 119.281C105.414 118.316 109.952 112.267 109.952 112.267L110.551 91.1155L106.284 91.9279L80.7227 96.7228Z" fill="#FCA397"/>
<path d="M80.7251 97.3326L81.2379 108.84C88.077 108.008 100.527 105.047 105.554 94.2876C105.942 93.4126 106.196 92.6261 106.28 91.9709L80.766 97.1559L80.7251 97.3326Z" fill="black"/>
<path d="M76.2646 42.2552C76.2646 42.2552 63.1746 72.2184 67.8913 89.0532C72.608 105.886 87.9433 103.237 97.1181 99.9834C106.293 96.7293 110.553 91.1026 110.553 91.1026C110.553 91.1026 119.124 94.0097 124.856 86.0384C130.59 78.067 127.06 68.9126 122.165 66.8158C117.271 64.719 111.451 68.2532 111.451 68.2532L116.013 59.5448C116.013 59.5448 96.8208 15.2876 76.2646 42.2552Z" fill="#FCA397"/>
<path d="M80.3265 37.8179C80.3265 37.8179 79.3784 53.7606 95.414 61.0057C111.449 68.2508 122.163 66.8135 122.163 66.8135L121.122 46.022L101.049 24.2156L83.104 29.9349L80.3265 37.8179Z" fill="black"/>
<path d="M110.365 63.6521L110.426 72.729L118.499 64.7662L110.365 63.6521Z" fill="black"/>
<path d="M186.384 152.488C185.587 153.824 184.747 155.16 183.863 156.453C183.497 156.992 183.131 157.531 182.721 158.069C169.62 176.839 150.228 190.847 127.646 197.204C127.172 197.333 126.677 197.463 126.203 197.592L127.582 114C127.582 114 127.733 114.021 127.991 114.064C128.056 114.086 128.142 114.086 128.228 114.107C133.184 114.948 165.656 121.37 183.088 146.928C184.273 148.63 185.35 150.505 186.384 152.488Z" fill="#F7734F"/>
<path d="M88.3098 120.523C81.9662 120.523 77.2388 119.391 76.8444 119.292C76.267 119.15 75.9157 118.566 76.058 117.988C76.2002 117.411 76.7884 117.059 77.3616 117.2C77.5533 117.247 96.543 121.779 109.581 112.273C110.062 111.926 110.734 112.03 111.087 112.51C111.439 112.991 111.331 113.665 110.85 114.017C103.697 119.232 95.0821 120.523 88.3098 120.523Z" fill="#7772D3"/>
<path d="M72.5411 53.1983C72.0822 53.1983 71.6577 52.9031 71.5133 52.4419C71.3345 51.873 71.6512 51.2696 72.2201 51.0929L78.1909 49.2266C78.7619 49.0478 79.363 49.3624 79.5397 49.9335C79.7186 50.5024 79.4018 51.1058 78.833 51.2825L72.8622 53.1487C72.7566 53.1811 72.6489 53.1983 72.5411 53.1983Z" fill="black"/>
<path d="M112.063 82.2348C111.773 82.2348 111.482 82.1184 111.271 81.8857C110.87 81.4482 110.896 80.7651 111.335 80.3642L120.573 71.8649C121.01 71.4619 121.693 71.4921 122.096 71.9295C122.497 72.367 122.471 73.0502 122.031 73.4531L112.794 81.9525C112.585 82.1399 112.324 82.2348 112.063 82.2348Z" fill="black"/>
<path d="M121.419 81.1164C121.275 81.1164 121.129 81.0862 120.986 81.0259L115.474 78.6058C114.929 78.3666 114.682 77.7309 114.921 77.1857C115.16 76.6426 115.796 76.3926 116.341 76.6318L121.852 79.0519C122.398 79.2911 122.645 79.9268 122.406 80.4721C122.23 80.8772 121.833 81.1164 121.419 81.1164Z" fill="black"/>
<path d="M74.3881 68.3113C74.3148 68.3113 74.2416 68.3049 74.1683 68.2898C73.5866 68.1691 73.2116 67.598 73.3323 67.0162L74.4334 61.7127L72.2678 59.2172C71.8778 58.769 71.9253 58.088 72.3756 57.698C72.8259 57.3058 73.5047 57.3575 73.8947 57.8057L76.4092 60.7042C76.629 60.9585 76.7195 61.299 76.6506 61.6287L75.4418 67.4558C75.3362 67.9622 74.888 68.3113 74.3881 68.3113Z" fill="black"/>
<path d="M92.4511 69.2315C92.3778 69.2315 92.3046 69.2229 92.2313 69.2099C91.6474 69.0893 91.2746 68.5182 91.3953 67.9363L92.4964 62.6329L90.3308 60.1374C89.9408 59.6892 89.9882 59.0082 90.4386 58.6181C90.8868 58.2259 91.5677 58.2755 91.9577 58.7259L94.4723 61.6243C94.6942 61.8786 94.7825 62.2191 94.7136 62.5488L93.5048 68.376C93.3992 68.8824 92.951 69.2315 92.4511 69.2315Z" fill="black"/>
<path d="M77.9606 81.4676C77.4628 81.4676 77.0147 81.1185 76.9069 80.612C74.9009 71.0309 79.54 66.2059 79.7382 66.0054C80.1562 65.5809 80.8371 65.5766 81.2616 65.9968C81.6839 66.4127 81.6883 67.0937 81.2724 67.5183C81.0936 67.7036 77.2624 71.8024 79.0142 80.1703C79.1371 80.7543 78.7621 81.3232 78.1804 81.446C78.1093 81.4611 78.0338 81.4676 77.9606 81.4676Z" fill="black"/>
<path d="M87.6953 90.6866C87.0575 90.6866 85.5276 90.3892 82.3322 86.855C81.9637 86.4456 81.8301 85.8917 81.9745 85.3724C82.1253 84.8315 82.5541 84.4069 83.1165 84.2367C90.8046 81.9373 91.8496 82.7217 92.2956 83.0601C92.677 83.3467 93.2567 84.0449 92.83 85.4758C92.2461 87.439 89.7983 90.5508 87.8849 90.6801C87.8354 90.6823 87.7707 90.6866 87.6953 90.6866ZM84.5408 86.0641C86.2689 87.8592 87.5014 88.5058 87.7449 88.5273C87.9323 88.5058 88.652 88.0877 89.5376 86.9843C90.3025 86.0275 90.6861 85.1914 90.7938 84.7625C90.1625 84.8164 88.2792 84.9888 84.5408 86.0641Z" fill="black"/>
<path d="M51.7911 152.014C51.6812 152.141 41.3903 163.177 43.3424 183.015C42.724 182.617 42.1272 182.199 41.5325 181.757C41.3622 181.647 41.2136 181.513 41.0433 181.382C39.7785 161.683 50.1105 150.669 50.2441 150.52C50.6599 150.096 51.3279 150.085 51.7739 150.481C52.1962 150.899 52.207 151.589 51.7911 152.014Z" fill="#7772D3"/>
</svg>
