<svg width="201" height="201" viewBox="0 0 201 201" fill="none" xmlns="http://www.w3.org/2000/svg">
<path d="M200.907 100.466C200.907 109.388 199.744 118.051 197.546 126.283C186.169 169.275 147.017 200.932 100.454 200.932C69.1238 200.932 41.1554 186.601 22.7324 164.146C8.53274 146.799 0 124.624 0 100.466C0 44.9749 44.9693 0 100.454 0C155.938 0 200.907 44.9749 200.907 100.466Z" fill="#EDDDD6"/>
<path d="M200.907 100.466C200.907 109.388 199.744 118.051 197.546 126.283C186.169 169.275 147.017 200.932 100.454 200.932C69.1238 200.932 41.1554 186.601 22.7324 164.146C8.53274 146.799 0 124.624 0 100.466C0 44.9749 44.9693 0 100.454 0C155.938 0 200.907 44.9749 200.907 100.466Z" fill="#EDDDD6"/>
<path d="M197.546 126.283C186.169 169.275 147.017 200.932 100.454 200.932C69.1238 200.932 41.1554 186.601 22.7324 164.146C52.123 128.179 83.8191 124.343 83.8191 124.343C83.8191 124.343 83.0649 118.913 83.8191 117.447C84.3578 116.413 86.3401 115.465 87.439 115.012C87.87 114.84 88.1501 114.732 88.1501 114.732C88.1501 114.732 89.7446 114.452 92.2441 114.064C97.2646 113.267 105.927 111.995 112.649 111.5C114.696 111.327 116.571 111.241 118.101 111.263C119.76 111.284 121.031 111.435 121.721 111.758C122.561 112.146 123.531 114.732 123.531 114.732C123.531 114.732 135.964 112.814 153.137 114.732C160.355 115.551 178.304 118.87 197.546 126.283Z" fill="#7C6053"/>
<path d="M83.4634 69.9016C83.4634 69.9016 65.898 64.2641 65.8032 77.47C65.6933 92.7705 83.819 91.2189 83.819 91.2189L83.4634 69.9016Z" fill="#F27E64"/>
<path d="M76.23 84.4135C75.8939 84.4135 75.562 84.2562 75.353 83.9631L68.8134 74.8238C68.4665 74.3389 68.5785 73.6665 69.0633 73.3196C69.5503 72.9748 70.2204 73.0847 70.5673 73.5695L77.107 82.7089C77.4539 83.1938 77.3418 83.8661 76.857 84.2131C76.6674 84.3467 76.4476 84.4135 76.23 84.4135Z" fill="black"/>
<path d="M69.4021 82.1269C68.8591 82.1269 68.3937 81.7196 68.3312 81.168C68.2665 80.5775 68.6932 80.0452 69.2836 79.9784L74.0951 79.4483C74.6898 79.3815 75.2177 79.8103 75.2845 80.4008C75.3491 80.9912 74.9225 81.5235 74.3321 81.5903L69.5206 82.1205C69.4796 82.1248 69.4409 82.1269 69.4021 82.1269Z" fill="black"/>
<path d="M117.282 103.097L119.079 120.824C119.079 120.824 112.574 125.152 104.028 126.096C92.4898 127.371 87.9498 120.878 87.9498 120.878L86.0967 100.072L117.282 103.097Z" fill="#F27E64"/>
<path d="M117.278 103.071C117.278 103.071 113.08 117.949 99.777 117.212C89.0529 116.618 84.6313 101.903 84.6313 101.903L117.278 103.071Z" fill="black"/>
<path d="M76.741 55.8898C76.741 55.8898 72.3604 89.0509 83.0004 102.565C94.4119 117.055 110.042 110.954 115.623 105.772C123.15 98.7807 124.005 89.9754 124.005 89.9754C124.005 89.9754 135.358 91.1542 138.226 81.7174C141.239 71.8044 133.581 64.7468 127.963 64.8136C122.346 64.8783 121.79 65.9536 121.79 65.9536L122.475 55.6031C122.471 55.6031 85.069 21.093 76.741 55.8898Z" fill="#F27E64"/>
<path d="M124.895 80.5733C124.626 80.5733 124.354 80.472 124.145 80.2694C123.718 79.8557 123.706 79.1747 124.119 78.7459L132.031 70.5655C132.445 70.1388 133.128 70.128 133.555 70.5396C133.981 70.9534 133.994 71.6344 133.581 72.0632L125.669 80.2436C125.457 80.4655 125.177 80.5733 124.895 80.5733Z" fill="black"/>
<path d="M132.964 81.1918C132.772 81.1918 132.576 81.14 132.4 81.0323L126.968 77.6877C126.461 77.3753 126.304 76.7115 126.614 76.2051C126.924 75.6987 127.588 75.537 128.097 75.8517L133.529 79.1962C134.035 79.5087 134.192 80.1724 133.88 80.6789C133.68 81.0086 133.326 81.1918 132.964 81.1918Z" fill="black"/>
<path d="M107.288 73.1687C106.711 73.1687 106.233 72.7097 106.213 72.1278L106.024 66.6347C106.002 66.04 106.47 65.5421 107.062 65.5206C107.655 65.4581 108.155 65.9667 108.176 66.5593L108.366 72.0524C108.387 72.6472 107.92 73.145 107.327 73.1665C107.314 73.1687 107.301 73.1687 107.288 73.1687Z" fill="black"/>
<path d="M86.2753 73.9724C85.6978 73.9724 85.2195 73.5156 85.2001 72.9316L85.0105 67.4385C84.9889 66.8437 85.4544 66.3459 86.0491 66.3244C86.6546 66.2942 87.1415 66.7683 87.1631 67.3631L87.3527 72.8562C87.3742 73.4509 86.9088 73.9487 86.3141 73.9703C86.299 73.9724 86.2861 73.9724 86.2753 73.9724Z" fill="black"/>
<path d="M97.2775 87.5642C96.8121 87.5642 96.3833 87.2603 96.2454 86.7927C93.7351 78.3127 95.8382 71.0418 95.9287 70.7379C96.0989 70.169 96.6957 69.8393 97.2667 70.0138C97.8377 70.1819 98.1631 70.781 97.9951 71.3521C97.9757 71.4211 95.989 78.3386 98.3118 86.1806C98.4799 86.7517 98.1545 87.3508 97.5856 87.5211C97.4801 87.5512 97.3788 87.5642 97.2775 87.5642Z" fill="black"/>
<path d="M82.539 62.7621C82.2718 62.7621 82.0047 62.663 81.7957 62.4647C81.3647 62.0531 81.3496 61.3722 81.759 60.9412C83.9461 58.6504 87.9 58.3164 88.0659 58.3034C88.6628 58.2625 89.1756 58.7 89.223 59.2926C89.2704 59.8852 88.8266 60.4046 88.234 60.452C88.2017 60.4541 84.9286 60.7386 83.3169 62.4281C83.1057 62.6501 82.8235 62.7621 82.539 62.7621Z" fill="black"/>
<path d="M109.54 62.314C109.355 62.314 109.17 62.2666 108.999 62.1674C106.983 60.9908 103.759 61.6244 103.727 61.6308C103.143 61.745 102.576 61.3744 102.455 60.7904C102.337 60.2064 102.712 59.6396 103.294 59.5189C103.46 59.4866 107.351 58.7087 110.085 60.3055C110.6 60.6051 110.773 61.2645 110.473 61.7774C110.273 62.1222 109.911 62.314 109.54 62.314Z" fill="black"/>
<path d="M124.362 65.7685C124.362 65.7685 121.794 76.1082 120.458 75.8194C119.122 75.5328 119.833 59.5362 123.546 58.5471C127.258 57.5579 124.362 65.7685 124.362 65.7685Z" fill="black"/>
<path d="M98.8915 96.9362C98.3162 96.9362 97.8422 96.4815 97.8163 95.9018C97.7926 95.3092 98.2559 94.8071 98.8484 94.7812C99.0725 94.7726 104.339 94.4925 106.392 89.9799C106.64 89.439 107.28 89.1998 107.819 89.4454C108.359 89.6911 108.599 90.3312 108.353 90.8721C105.741 96.6108 99.2083 96.9233 98.9324 96.9341C98.9195 96.9362 98.9044 96.9362 98.8915 96.9362Z" fill="black"/>
<path d="M122.637 64.4344C122.637 64.4344 111.322 63.9818 103.509 58.4672C96.9113 53.8102 94.1338 46.8668 94.1338 46.8668C94.1338 46.8668 89.2598 46.4573 82.537 51.0109C75.8143 55.5644 75.8444 68.7163 75.8444 68.7163C75.8444 68.7163 62.1059 47.0284 67.8418 38.8911C73.5777 30.7539 83.8169 36.8568 83.8169 36.8568C83.8169 36.8568 81.4187 22.3903 101.794 27.1378C122.169 31.8852 127.53 49.0627 127.53 49.0627C127.53 49.0627 134.373 48.1576 135.505 54.4869C136.634 60.8161 134.324 67.4018 134.324 67.4018C134.324 67.4018 131.21 64.6951 126.69 66.598C122.169 68.5008 122.169 68.5008 122.169 68.5008L122.637 64.4344Z" fill="black"/>
<path d="M88.1502 114.741C88.1502 114.741 92.0675 118.456 101.13 118.682C110.193 118.909 118.142 111.584 118.142 111.584L123.981 122.298L109.542 131.115L85.3447 129.08V118.23L88.1502 114.741Z" fill="#7C6053"/>
<path d="M98.146 132.218C88.3527 132.218 83.009 125.057 82.9465 124.968C82.5974 124.488 82.703 123.816 83.1835 123.466C83.6619 123.115 84.3363 123.221 84.6875 123.699C84.9655 124.076 91.63 132.933 104.084 129.132C104.658 128.959 105.257 129.281 105.429 129.849C105.601 130.418 105.28 131.02 104.711 131.194C102.343 131.918 100.152 132.218 98.146 132.218Z" fill="white"/>
</svg>
