<svg width="219" height="165" viewBox="0 0 219 165" fill="none" xmlns="http://www.w3.org/2000/svg">
<path d="M78.53 164.889C77.1311 164.819 75.7168 164.712 74.3253 164.572C72.9449 164.432 71.5512 164.255 70.1819 164.047C68.8226 163.84 67.4506 163.597 66.105 163.322C64.7685 163.049 63.4213 162.74 62.0995 162.401C60.7777 162.061 59.4638 161.689 58.1706 161.29C56.8773 160.891 55.5899 160.455 54.3235 159.993C53.0657 159.534 51.8009 159.038 50.5642 158.516C49.3274 157.994 48.1002 157.442 46.8968 156.863C45.6933 156.285 44.4978 155.675 43.3271 155.042C42.1564 154.408 40.9946 153.742 39.8599 153.055C38.7251 152.368 37.5982 151.647 36.501 150.909C35.4037 150.17 34.3138 149.398 33.2551 148.609C32.1964 147.82 31.1456 146.996 30.1276 146.159C29.1096 145.322 28.099 144.45 27.1237 143.568C26.1485 142.687 25.1812 141.766 24.2487 140.836C23.3163 139.907 22.3939 138.944 21.5074 137.971C20.6209 136.998 19.745 135.991 18.905 134.977C18.0651 133.964 17.2383 132.915 16.4474 131.861C15.6566 130.806 14.8789 129.717 14.1393 128.626C13.3997 127.535 12.6727 126.405 11.986 125.279C11.2992 124.152 10.6256 122.986 9.99217 121.824C9.35875 120.661 8.74117 119.461 8.16427 118.266C7.58738 117.072 7.0258 115.837 6.50648 114.612C5.98717 113.387 5.48529 112.121 5.02409 110.865C4.56289 109.61 4.12282 108.314 3.72237 107.032C3.32192 105.75 2.94472 104.424 2.60714 103.119C2.26744 101.803 1.95628 100.461 1.68262 99.1272C1.40685 97.7857 1.16172 96.4183 0.954101 95.0647C0.742783 93.7004 0.567917 92.3114 0.425806 90.936C0.284751 89.5501 0.176979 88.1404 0.108829 86.746C0.0359241 85.3369 0 83.9092 0 82.4952C0 81.0813 0.0359241 79.6552 0.105659 78.2513C0.176451 76.8569 0.284223 75.4488 0.422636 74.0613C0.562634 72.6865 0.739613 71.2969 0.950931 69.9327C1.15855 68.5785 1.40368 67.2116 1.67945 65.8696C1.95258 64.5371 2.26374 63.194 2.60397 61.8784C2.94155 60.5708 3.31664 59.2536 3.7192 57.9655C4.11965 56.6833 4.5576 55.3936 5.02092 54.1319C5.48423 52.8703 5.98083 51.616 6.50331 50.3856C7.0258 49.1551 7.58051 47.9316 8.1611 46.7307C8.7417 45.5299 9.35399 44.3386 9.98901 43.1731C10.624 42.0077 11.2934 40.8465 11.9828 39.7187C12.6722 38.5908 13.3944 37.465 14.1361 36.371C14.8778 35.277 15.6523 34.1914 16.4442 33.1365C17.2362 32.0816 18.0619 31.0347 18.9019 30.0199C19.7419 29.0052 20.6167 27.999 21.5043 27.026C22.3918 26.0531 23.3163 25.0865 24.2487 24.158C25.1812 23.2295 26.1506 22.3099 27.1237 21.4264C28.0968 20.5428 29.1096 19.6708 30.1276 18.8354C31.1456 17.9999 32.198 17.1745 33.2551 16.3866C34.3122 15.5988 35.4063 14.8236 36.501 14.0859C37.5956 13.3483 38.7283 12.6255 39.8599 11.9402C40.9915 11.2549 42.1611 10.5849 43.3271 9.9536C44.493 9.32224 45.6975 8.70728 46.8968 8.13145C48.096 7.55562 49.3333 6.99829 50.5642 6.47957C51.7951 5.96084 53.0646 5.46168 54.3235 5.00218C55.5825 4.54268 56.8831 4.10327 58.1706 3.7051C59.458 3.30694 60.7856 2.93045 62.0995 2.59468C63.4134 2.25891 64.7669 1.94588 66.105 1.67356C67.4432 1.40124 68.8226 1.15537 70.1819 0.948087C71.5507 0.739751 72.9449 0.563142 74.3253 0.423017C75.7158 0.282364 77.1306 0.175023 78.53 0.105754C79.94 0.0343702 81.3738 0 82.7902 0C84.2066 0 85.6398 0.0359565 87.0504 0.105754C88.4493 0.176081 89.8635 0.283422 91.2551 0.423017C92.6355 0.563142 94.0297 0.74028 95.3985 0.948087C96.7578 1.15484 98.1298 1.3986 99.4753 1.67356C100.811 1.94588 102.159 2.25521 103.481 2.59468C104.794 2.93151 106.116 3.30588 107.41 3.7051C108.704 4.10432 109.992 4.54056 111.256 5.00218C112.521 5.4638 113.781 5.95873 115.016 6.47957C116.251 7.00041 117.481 7.55403 118.684 8.13145C119.886 8.70887 121.082 9.3196 122.253 9.9536C123.425 10.5876 124.586 11.2528 125.721 11.9402C126.855 12.6276 127.981 13.3467 129.079 14.0859C130.178 14.8252 131.266 15.5919 132.325 16.385L132.521 16.5315L132.502 16.5278C132.853 16.8202 133.188 17.1307 133.506 17.4579C133.851 17.8085 134.189 18.1813 134.51 18.5683C134.908 19.0445 135.282 19.541 135.629 20.0558C136.462 21.275 137.107 22.6128 137.543 24.0242C137.659 24.4123 137.754 24.8068 137.833 25.1965C137.913 25.6048 137.97 26.0172 138.006 26.4317C138.081 27.3121 138.052 28.1984 137.919 29.0719C137.915 29.0978 137.911 29.1247 137.907 29.1491C137.904 29.1734 137.899 29.2019 137.895 29.23V29.2326C137.811 29.7889 137.737 30.2695 137.644 30.7512C137.546 31.256 137.421 31.755 137.269 32.2461C137.097 32.8002 136.874 33.3999 136.589 34.0788C136.287 34.7963 135.906 35.626 135.422 36.6169C135.139 37.1814 134.82 37.7267 134.465 38.2492C134.102 38.7933 133.669 39.3845 133.18 40.0079C132.328 41.0887 131.292 42.2816 130.097 43.5539C128.93 44.7975 127.84 45.873 127.13 46.5562C126.249 47.4023 125.571 48.0209 125.228 48.3149C124.092 49.1112 123.126 49.7632 122.357 50.2513C121.265 50.7865 120.073 51.0895 118.857 51.1412C118.683 51.1412 118.509 51.1317 118.335 51.1126C117.471 51.0116 116.613 50.8544 115.768 50.642C115.062 50.4665 114.342 50.2513 113.625 50.0028C112.941 49.7687 112.268 49.5001 111.611 49.198V49.2122L111.442 49.0763C110.341 48.1954 109.184 47.3563 108.004 46.5827C106.823 45.8091 105.578 45.0751 104.321 44.4147C103.053 43.7479 101.742 43.134 100.417 42.5904C99.0786 42.0416 97.6982 41.5514 96.313 41.1337C95.6151 40.9222 94.9019 40.7265 94.1934 40.552C93.485 40.3775 92.7538 40.2115 92.0327 40.0687C91.3116 39.926 90.5667 39.7964 89.8334 39.6875C89.1002 39.5786 88.3426 39.4855 87.5982 39.412C86.8538 39.3385 86.0857 39.2819 85.3297 39.2449C84.5737 39.2079 83.7977 39.1883 83.0311 39.1883C82.2645 39.1883 81.4932 39.2074 80.7325 39.2449C79.9717 39.2824 79.2131 39.338 78.464 39.412C77.7149 39.486 76.9668 39.578 76.2288 39.6875C75.4907 39.7969 74.7548 39.9244 74.0295 40.0687C73.3041 40.2131 72.5804 40.3744 71.8687 40.552C71.1571 40.7297 70.4466 40.9253 69.7492 41.1337C68.3635 41.5514 66.9831 42.0416 65.6454 42.5904C64.321 43.134 63.0071 43.7479 61.7408 44.4147C60.484 45.0767 59.2451 45.8064 58.0581 46.5827C56.871 47.3589 55.7198 48.1959 54.6194 49.0763C53.5189 49.9567 52.4534 50.8953 51.4496 51.872C50.4458 52.8486 49.4727 53.8839 48.5667 54.9484C47.6607 56.0128 46.7932 57.1375 45.9955 58.2828C45.1978 59.4281 44.4412 60.6353 43.7587 61.8546C43.0761 63.074 42.438 64.3552 41.878 65.6406C41.5953 66.2884 41.3264 66.9499 41.0781 67.6077C40.8298 68.2655 40.5921 68.9471 40.376 69.6202C40.1599 70.2933 39.956 70.9897 39.7743 71.676C39.5926 72.3624 39.423 73.0725 39.2756 73.7716C39.1282 74.4706 38.995 75.1934 38.8831 75.9052C38.7711 76.6169 38.6749 77.3498 38.5994 78.0731C38.5238 78.7965 38.4646 79.541 38.4266 80.2728C38.3886 81.0046 38.3685 81.7602 38.3685 82.5021C38.3685 83.244 38.388 83.9933 38.4266 84.7314C38.4652 85.4696 38.5228 86.2035 38.5994 86.9311C38.676 87.6587 38.7705 88.3831 38.8831 89.0991C38.9956 89.815 39.1277 90.5268 39.2756 91.2327C39.4235 91.9386 39.5926 92.6376 39.7743 93.3282C39.956 94.0188 40.1584 94.703 40.376 95.3835C40.5937 96.064 40.8282 96.7345 41.0781 97.396C41.328 98.0575 41.5953 98.718 41.878 99.3636C42.4385 100.648 43.0714 101.922 43.7587 103.15C44.4412 104.369 45.1941 105.57 45.9955 106.721C46.7969 107.872 47.658 108.988 48.5667 110.055C49.4754 111.122 50.4422 112.155 51.4496 113.132C52.4571 114.109 53.5237 115.048 54.6194 115.927C55.7151 116.807 56.8768 117.647 58.0581 118.421C59.2393 119.195 60.4845 119.929 61.7408 120.589C63.0087 121.256 64.3199 121.869 65.6454 122.413C66.9836 122.962 68.364 123.452 69.7492 123.869C70.4471 124.081 71.1603 124.277 71.8687 124.451C72.5772 124.626 73.3078 124.792 74.0295 124.934C74.7511 125.077 75.4955 125.207 76.2288 125.316C76.962 125.425 77.7196 125.518 78.464 125.591C79.2083 125.665 79.9775 125.721 80.7325 125.758C81.4874 125.795 82.2672 125.815 83.0311 125.815C83.795 125.815 84.5679 125.796 85.3297 125.758C86.0915 125.721 86.848 125.665 87.5982 125.591C88.3484 125.517 89.0943 125.425 89.8334 125.316C90.5725 125.206 91.3068 125.079 92.0327 124.934C92.7586 124.79 93.4813 124.628 94.1934 124.451C94.9056 124.274 95.6156 124.078 96.313 123.869C97.6982 123.452 99.0786 122.962 100.417 122.413C101.741 121.87 103.055 121.256 104.321 120.589C105.578 119.926 106.817 119.197 108.004 118.421C108.84 117.873 109.672 117.287 110.475 116.679V116.717C110.528 116.683 111.003 116.372 111.704 115.987C112.137 115.749 112.57 115.529 112.991 115.334C113.485 115.103 113.99 114.899 114.505 114.721C115 114.553 115.482 114.409 115.936 114.291C116.34 114.186 116.736 114.103 117.113 114.039C117.688 113.941 118.268 113.884 118.851 113.868H118.894C119.298 113.889 119.698 113.954 120.088 114.061C120.717 114.221 121.335 114.422 121.937 114.664C122.679 114.957 123.398 115.306 124.088 115.706C124.838 116.139 125.542 116.646 126.19 117.221C127.08 118.004 127.905 118.857 128.657 119.774C129.32 120.588 129.904 121.437 130.643 122.512C131.007 123.041 131.42 123.641 131.897 124.316C132.444 125.09 132.988 125.912 133.515 126.758C133.938 127.436 134.347 128.133 134.736 128.824C135.392 129.993 135.761 130.756 135.777 130.787C136.01 131.152 136.219 131.53 136.403 131.921C136.605 132.338 136.785 132.766 136.942 133.201C137.136 133.735 137.294 134.282 137.414 134.837C137.532 135.337 137.623 135.843 137.688 136.352C137.729 136.738 137.732 137.106 137.741 137.716V137.746C137.741 137.979 137.747 138.194 137.75 138.367C137.758 138.797 137.765 139.137 137.75 139.511C137.728 139.952 137.681 140.391 137.61 140.827C137.357 141.653 137.023 142.452 136.613 143.212C136.22 143.955 135.787 144.677 135.316 145.374C134.872 146.038 134.46 146.593 134.192 146.943C133.914 147.305 133.732 147.525 133.712 147.548L133.737 147.54C133.269 147.904 132.795 148.265 132.328 148.613C131.269 149.403 130.177 150.176 129.083 150.914C127.988 151.651 126.855 152.375 125.724 153.06C124.593 153.745 123.421 154.416 122.256 155.046C121.092 155.677 119.885 156.293 118.687 156.868C117.489 157.443 116.25 158.002 115.019 158.52C113.789 159.039 112.519 159.538 111.259 159.998C110 160.458 108.7 160.897 107.413 161.295C106.126 161.693 104.798 162.07 103.484 162.405C102.17 162.741 100.816 163.054 99.4785 163.326C98.1324 163.6 96.761 163.845 95.4016 164.052C94.0328 164.26 92.6387 164.437 91.2582 164.577C89.8678 164.718 88.453 164.825 87.0535 164.894C85.6435 164.966 84.2103 165 82.7934 165C81.3765 165 79.94 164.961 78.53 164.889ZM193.356 106.535C191.051 106.29 188.798 105.688 186.678 104.75C185.988 104.445 185.305 104.1 184.645 103.725C183.985 103.351 183.345 102.944 182.726 102.509C182.108 102.075 181.511 101.604 180.936 101.11C180.36 100.615 179.808 100.089 179.284 99.5402C178.76 98.9919 178.254 98.4107 177.782 97.8132C177.311 97.2157 176.858 96.5844 176.443 95.9414C176.028 95.2984 175.633 94.6194 175.278 93.9363C174.922 93.2531 174.591 92.5324 174.298 91.8111C174.005 91.0899 173.74 90.3306 173.516 89.5765C173.289 88.8135 173.096 88.0299 172.943 87.2468C172.787 86.4536 172.669 85.6409 172.59 84.8324C172.511 84.0118 172.47 83.1752 172.47 82.3472C172.47 81.5191 172.51 80.6816 172.59 79.862C172.669 79.054 172.787 78.2413 172.943 77.4476C173.096 76.6645 173.289 75.8798 173.516 75.1173C173.74 74.3633 174.004 73.6114 174.298 72.8832C174.592 72.1551 174.919 71.4471 175.278 70.7581C175.636 70.0691 176.025 69.3992 176.443 68.753C176.861 68.1068 177.31 67.4802 177.782 66.8806C178.255 66.281 178.76 65.7025 179.284 65.1542C179.808 64.6058 180.364 64.0781 180.936 63.5848C181.507 63.0914 182.112 62.6198 182.726 62.1851C183.341 61.7505 183.99 61.3391 184.645 60.9689C185.3 60.5988 185.988 60.2498 186.678 59.9447C189.531 58.6826 192.616 58.0307 195.734 58.0307C198.853 58.0307 201.938 58.6826 204.79 59.9447C205.481 60.2498 206.164 60.5946 206.824 60.9689C207.485 61.3433 208.125 61.7505 208.743 62.1851C209.361 62.6198 209.958 63.0904 210.534 63.5848C211.109 64.0792 211.661 64.6058 212.186 65.1542C212.711 65.7025 213.216 66.2836 213.687 66.8806C214.159 67.4776 214.611 68.11 215.027 68.753C215.442 69.396 215.837 70.0749 216.192 70.7581C216.548 71.4413 216.879 72.162 217.172 72.8832C217.464 73.6045 217.73 74.3638 217.954 75.1173C218.181 75.8803 218.374 76.6645 218.527 77.4476C218.682 78.2407 218.801 79.0535 218.88 79.862C218.959 80.6826 219 81.5191 219 82.3472C219 83.1752 218.96 84.0133 218.88 84.8324C218.801 85.6404 218.682 86.4526 218.527 87.2468C218.373 88.0299 218.181 88.8146 217.954 89.5765C217.729 90.3306 217.466 91.083 217.172 91.8111C216.877 92.5393 216.55 93.2473 216.192 93.9363C215.834 94.6253 215.444 95.2952 215.027 95.9414C214.609 96.5875 214.16 97.2141 213.687 97.8132C213.215 98.4123 212.71 98.9919 212.186 99.5402C211.662 100.089 211.106 100.616 210.534 101.11C209.961 101.603 209.358 102.075 208.743 102.509C208.128 102.944 207.479 103.355 206.824 103.725C206.169 104.096 205.481 104.445 204.79 104.75C201.2 106.334 197.258 106.949 193.356 106.535ZM183.487 82.2351C183.487 89.5263 189.001 95.4581 195.779 95.4581C202.556 95.4581 208.07 89.5258 208.07 82.2351C208.07 74.9444 202.556 69.0121 195.779 69.0121C189.001 69.0121 183.49 74.9439 183.49 82.2351H183.487ZM115.636 105.032C114.812 103.958 111.731 96.8202 111.7 96.7483C111.697 96.7398 111.33 95.9155 110.98 95.9155H110.207L106.414 95.9091C103.139 95.9038 100.451 95.9017 98.4335 95.9017C95.5739 95.9017 94.036 95.9065 93.8622 95.917C93.2774 95.9514 92.6709 96.7419 92.6646 96.7499C92.5187 97.0671 89.0843 104.523 88.7309 105.034C88.7045 105.072 88.678 105.112 88.6506 105.152C88.3051 105.668 87.9109 106.252 86.4703 106.391C86.1306 106.424 85.8004 106.441 85.4887 106.441C84.1957 106.457 82.9217 106.128 81.7975 105.489C80.4467 104.72 78.801 103.495 78.6325 102.019C78.5255 100.927 78.7348 99.8277 79.2353 98.8517C79.4239 98.4435 84.1564 88.7379 88.733 79.3522L88.7393 79.3395L88.742 79.3337C92.691 71.2361 96.4202 63.5869 96.6638 63.0729C96.718 62.9587 96.7708 62.8464 96.8222 62.7361C97.1858 61.8111 97.7169 60.9613 98.3886 60.2292C98.8541 59.6914 99.4313 59.2618 100.08 58.9705C100.729 58.6793 101.433 58.5333 102.144 58.5429C102.882 58.5304 103.614 58.6741 104.293 58.9647C104.971 59.2554 105.581 59.6863 106.082 60.2292C106.68 60.8736 107.166 61.6141 107.519 62.4199C107.637 62.6584 107.749 62.8831 107.859 63.0735C108.182 63.6366 117.855 83.7342 122.504 93.3922L122.514 93.4117C124.037 96.5764 125.043 98.6672 125.134 98.8523C125.528 99.7329 125.672 100.706 125.549 101.663C125.453 102.392 125.181 103.086 124.756 103.685C124.164 104.481 123.391 105.123 122.502 105.559C121.37 106.212 120.1 106.587 118.796 106.654C118.176 106.665 117.564 106.522 117.013 106.239C116.462 105.956 115.989 105.542 115.636 105.032ZM99.7876 82.4091C99.5738 82.8345 99.4724 83.3077 99.493 83.7835C99.5136 84.2593 99.6555 84.7219 99.9052 85.1273C100.155 85.5327 100.504 85.8674 100.92 86.0996C101.335 86.3317 101.803 86.4536 102.279 86.4536C102.755 86.4536 103.222 86.3317 103.638 86.0996C104.053 85.8674 104.403 85.5327 104.652 85.1273C104.902 84.7219 105.044 84.2593 105.064 83.7835C105.085 83.3077 104.984 82.8345 104.77 82.4091C104.538 81.9468 104.182 81.5582 103.742 81.2866C103.302 81.015 102.796 80.8712 102.279 80.8712C101.762 80.8712 101.255 81.015 100.815 81.2866C100.375 81.5582 100.02 81.9468 99.7876 82.4091ZM134.587 105.87C133.783 105.871 132.996 105.631 132.329 105.18C132.115 105.034 131.915 104.869 131.732 104.686C131.357 104.312 131.059 103.867 130.856 103.377C130.653 102.887 130.549 102.361 130.549 101.831V62.5997C130.549 62.0693 130.654 61.5441 130.857 61.0542C131.06 60.5642 131.357 60.1191 131.732 59.7443C131.915 59.5612 132.115 59.396 132.329 59.251C132.996 58.7999 133.783 58.5595 134.587 58.5609H155.73C156.148 58.5717 156.562 58.6466 156.957 58.783C157.461 58.9513 157.949 59.1653 158.414 59.4223C159.577 60.0708 160.654 60.8626 161.62 61.779C162.169 62.2917 162.686 62.8368 163.169 63.4113C163.669 64.0057 164.13 64.6328 164.548 65.2885C164.971 65.9522 165.342 66.6478 165.657 67.3692C165.973 68.0913 166.22 68.8413 166.397 69.6096C166.715 71.0136 166.809 72.4592 166.676 73.8927C166.566 75.0588 166.317 76.2075 165.933 77.3138C165.781 77.7543 165.607 78.19 165.416 78.6104C165.263 78.9467 165.099 79.274 164.929 79.5822C164.776 79.8648 164.608 80.1389 164.426 80.4034C164.438 80.4193 164.722 80.7963 165.118 81.4377C165.355 81.8237 165.587 82.2309 165.808 82.6459C166.082 83.1663 166.339 83.7035 166.57 84.2397C167.145 85.5619 167.574 86.9429 167.849 88.3583C168.002 89.1543 168.096 89.9603 168.132 90.77C168.149 91.193 168.149 91.6218 168.132 92.039C168.114 92.4758 168.076 92.9136 168.02 93.3414C167.768 95.083 167.169 96.7562 166.258 98.2616C165.818 99.0072 165.324 99.7193 164.779 100.392C163.761 101.652 162.593 102.784 161.301 103.761C160.75 104.179 160.171 104.561 159.57 104.905C158.735 105.442 157.785 105.775 156.796 105.876L134.587 105.87ZM142.093 69.6709C141.989 69.6712 141.888 69.713 141.814 69.7871C141.74 69.8612 141.699 69.9616 141.698 70.0665V94.2287C141.698 94.3335 141.74 94.4341 141.814 94.5082C141.888 94.5824 141.989 94.6241 142.093 94.6242H153.215C153.317 94.6152 153.419 94.5976 153.518 94.5713C153.727 94.5212 153.933 94.4558 154.133 94.3757C154.404 94.268 154.665 94.1352 154.913 93.9791C155.204 93.7947 155.472 93.5749 155.709 93.3245C156.122 92.8619 156.433 92.3175 156.622 91.7267C156.81 91.1358 156.872 90.5119 156.804 89.8954C156.773 89.0473 156.547 88.2178 156.142 87.472C155.841 86.939 155.423 86.481 154.92 86.1321C154.719 85.9932 154.507 85.8719 154.286 85.7694C154.109 85.6868 153.927 85.6161 153.741 85.5579C153.568 85.5026 153.392 85.4621 153.212 85.4368H153.208C153.016 85.4368 152.006 85.4394 150.893 85.4394C150.184 85.4394 149.577 85.4394 149.089 85.4368C148.742 85.4435 148.401 85.3556 148.101 85.1825C147.874 85.0436 147.683 84.8537 147.542 84.6278C147.434 84.4557 147.35 84.2696 147.293 84.0747C147.268 83.9925 147.249 83.9085 147.236 83.8235V78.2979C147.248 78.2021 147.265 78.1072 147.289 78.0139C147.344 77.7951 147.426 77.5842 147.534 77.3862C147.669 77.1344 147.86 76.9172 148.093 76.7517C148.387 76.5544 148.733 76.4501 149.087 76.4524C149.412 76.4472 149.752 76.445 150.126 76.445C150.586 76.445 151.018 76.4487 151.421 76.4524H151.545C151.887 76.4556 152.21 76.4593 152.481 76.4593C152.723 76.4593 152.903 76.4593 153.043 76.4519H153.068C153.594 76.473 154.113 76.3162 154.54 76.0067C155.145 75.5112 155.435 74.579 155.401 73.2306C155.366 71.8474 155.027 70.8512 154.391 70.2753C154.262 70.1595 154.121 70.0594 153.968 69.9771C153.83 69.9023 153.685 69.8415 153.535 69.7957C153.274 69.7192 153.005 69.6767 152.734 69.6694C152.457 69.6588 151.388 69.6535 149.557 69.6535C146.447 69.6551 142.137 69.6709 142.095 69.6709H142.093Z" fill="#5B8DEF"/>
</svg>
