<svg width="272" height="187" viewBox="0 0 272 187" fill="none" xmlns="http://www.w3.org/2000/svg">
<path d="M86.3908 97.0047C86.7486 97.0043 87.1059 96.9777 87.4598 96.9249C97.7665 95.3148 107.329 90.5753 114.852 83.3485C118.06 80.2244 120.821 76.6724 123.057 72.793C125.291 76.6743 128.052 80.2281 131.26 83.3535C138.782 90.5792 148.343 95.3176 158.648 96.9266C159.003 96.9793 159.361 97.0059 159.719 97.0064C161.461 97.002 163.138 96.3412 164.414 95.1556C165.691 93.97 166.473 92.3468 166.606 90.6097C166.739 88.8726 166.212 87.1493 165.131 85.7835C164.049 84.4176 162.493 83.5096 160.772 83.2405C152.709 82.0494 145.289 78.1611 139.721 72.2101C134.153 66.2591 130.767 58.5967 130.114 50.4733H155.094C156.93 50.4733 158.691 49.7439 159.99 48.4454C161.288 47.147 162.018 45.3859 162.018 43.5497C162.018 41.7134 161.288 39.9523 159.99 38.6539C158.691 37.3554 156.93 36.626 155.094 36.626H91.016C89.1797 36.626 87.4187 37.3554 86.1202 38.6539C84.8218 39.9523 84.0923 41.7134 84.0923 43.5497C84.0923 45.3859 84.8218 47.147 86.1202 48.4454C87.4187 49.7439 89.1797 50.4733 91.016 50.4733H115.992C115.34 58.5958 111.954 66.2573 106.387 72.208C100.82 78.1586 93.4011 82.047 85.3401 83.2388C83.6149 83.503 82.0532 84.4091 80.9676 85.7757C79.882 87.1423 79.3526 88.8685 79.4854 90.6087C79.6183 92.349 80.4035 93.9748 81.6839 95.1608C82.9644 96.3468 84.6455 97.0054 86.3908 97.0047Z" fill="#3CAF87"/>
<path d="M248.745 130.523C254.864 130.515 260.729 128.081 265.056 123.755C269.382 119.429 271.816 113.564 271.825 107.445C271.825 105.609 271.095 103.848 269.797 102.549C268.498 101.25 266.737 100.521 264.9 100.521C263.064 100.521 261.302 101.25 260.004 102.549C258.705 103.848 257.976 105.609 257.976 107.445C257.973 109.893 257 112.24 255.269 113.971C253.538 115.702 251.191 116.675 248.744 116.678H243.018C248.797 109.907 252.121 101.384 252.451 92.4881C252.781 83.5926 250.097 74.8463 244.835 67.6664C239.573 60.4865 232.041 55.2936 223.459 52.9293C214.877 50.5649 205.749 51.1676 197.552 54.6396V70.5419C200.758 68.1281 204.486 66.5 208.436 65.7882C212.386 65.0764 216.447 65.3009 220.294 66.4435C224.142 67.5861 227.667 69.6151 230.588 72.3674C233.509 75.1198 235.744 78.5188 237.113 82.2914C238.482 86.064 238.947 90.1052 238.471 94.0902C237.995 98.0752 236.591 101.893 234.372 105.237C232.153 108.581 229.18 111.358 225.693 113.345C222.206 115.332 218.302 116.473 214.294 116.678H211.625C205.058 116.333 198.873 113.484 194.342 108.718C189.811 103.951 187.28 97.629 187.269 91.0527V7.12568C187.269 5.28919 186.54 3.52791 185.241 2.22931C183.942 0.930716 182.181 0.201172 180.345 0.201172C178.508 0.201172 176.747 0.930716 175.448 2.22931C174.15 3.52791 173.42 5.28919 173.42 7.12568V91.0511C173.417 100.45 176.778 109.541 182.897 116.676H161.026C159.19 116.676 157.429 117.405 156.13 118.704C154.832 120.002 154.102 121.763 154.102 123.6C154.102 125.436 154.832 127.197 156.13 128.495C157.429 129.794 159.19 130.523 161.026 130.523H188.125V139.483H180.892C177.842 139.487 174.919 140.7 172.763 142.857C170.607 145.013 169.395 147.937 169.392 150.986V175.498C169.395 178.548 170.607 181.471 172.763 183.627C174.919 185.784 177.842 186.996 180.892 187H245.041C248.09 186.996 251.014 185.784 253.17 183.627C255.326 181.471 256.539 178.548 256.543 175.498V150.988C256.539 147.938 255.326 145.015 253.17 142.858C251.014 140.702 248.09 139.488 245.041 139.484H237.806V130.523H248.745ZM242.697 173.153H183.228V153.33H242.697V173.153ZM223.96 139.483H201.966V130.523H211.627C212.074 130.538 212.512 130.591 212.957 130.591C213.403 130.591 213.847 130.538 214.287 130.523H223.96V139.483Z" fill="#3CAF87"/>
<path d="M138.131 0.0714906V7.35464e-07H138.06C134.111 -0.000872704 130.2 0.776236 126.551 2.28695C122.902 3.79765 119.587 6.01237 116.794 8.80461C114.001 11.5968 111.785 14.9119 110.274 18.5604C108.762 22.209 107.984 26.1196 107.984 30.0688V30.1403H108.056C112.005 30.1412 115.916 29.3641 119.565 27.8534C123.214 26.3427 126.529 24.128 129.322 21.3357C132.115 18.5435 134.33 15.2284 135.842 11.5799C137.353 7.93132 138.131 4.02075 138.131 0.0714906Z" fill="#3CAF87"/>
<path d="M63.8384 139.622V139.641H63.855C65.8467 139.641 67.7568 138.849 69.1652 137.441C70.5735 136.033 71.3647 134.123 71.3647 132.131V132.114H71.3481C70.362 132.114 69.3855 132.308 68.4744 132.685C67.5633 133.063 66.7354 133.616 66.038 134.313C65.3407 135.01 64.7875 135.838 64.4101 136.749C64.0326 137.66 63.8384 138.636 63.8384 139.622Z" fill="#3CAF87"/>
<path d="M14.0338 147.598C13.074 148.323 11.898 148.703 10.6954 148.678C9.74699 148.709 8.80675 148.494 7.96552 148.055C7.25851 147.67 6.66507 147.107 6.24479 146.42C5.84155 145.758 5.55056 145.033 5.38359 144.276C5.05446 142.78 5.05446 141.23 5.38359 139.734C5.5508 138.976 5.84176 138.251 6.24479 137.587C6.66507 136.901 7.25851 136.337 7.96552 135.953C8.80664 135.514 9.74706 135.3 10.6954 135.331C11.9092 135.299 13.0972 135.684 14.0604 136.424C15.0258 137.216 15.6433 138.354 15.7812 139.596H20.9899C20.8851 138.172 20.4502 136.792 19.7197 135.566C19.0962 134.542 18.2278 133.689 17.1927 133.084C16.2114 132.518 15.1445 132.116 14.0338 131.893C12.8754 131.668 11.6977 131.556 10.5175 131.561C9.0292 131.539 7.54626 131.745 6.1201 132.171C4.89169 132.542 3.76257 133.184 2.81661 134.051C1.86934 134.953 1.15163 136.068 0.723467 137.303C-0.241156 140.354 -0.241156 143.629 0.723467 146.68C1.14967 147.921 1.86749 149.041 2.81661 149.947C3.76158 150.818 4.89069 151.465 6.1201 151.84C7.5461 152.267 9.02915 152.473 10.5175 152.451C11.8622 152.463 13.203 152.304 14.5076 151.978C15.6557 151.695 16.7418 151.202 17.7114 150.525C18.644 149.858 19.4112 148.985 19.9541 147.975C20.558 146.837 20.9266 145.589 21.0381 144.306H15.7795C15.7225 144.943 15.5386 145.563 15.2389 146.128C14.9391 146.693 14.5294 147.193 14.0338 147.598Z" fill="#3CAF87"/>
<path d="M38.0875 139.538H28.0674V132.114H23.2327V151.89H28.0674V143.305H38.0875V151.89H42.9239V132.114H38.0875V139.538Z" fill="#3CAF87"/>
<path d="M51.0241 132.114H46.1877V151.89H51.0241V132.114Z" fill="#3CAF87"/>
<path d="M92.6494 135.092C91.7543 133.964 90.5832 133.087 89.2495 132.545C85.6166 131.235 81.6402 131.235 78.0073 132.545C76.6722 133.086 75.4997 133.964 74.6041 135.092C73.8502 136.081 73.3035 137.212 72.9964 138.417C72.4149 140.772 72.4149 143.234 72.9964 145.589C73.303 146.795 73.8498 147.926 74.6041 148.914C75.4986 150.045 76.6713 150.924 78.0073 151.465C81.6402 152.775 85.6166 152.775 89.2495 151.465C90.584 150.923 91.7554 150.044 92.6494 148.914C93.4049 147.926 93.9518 146.795 94.257 145.589C94.8404 143.234 94.8404 140.772 94.257 138.417C93.9513 137.212 93.4044 136.08 92.6494 135.092ZM89.2345 144.402C89.0247 145.175 88.6742 145.902 88.2004 146.547C87.7139 147.205 87.0772 147.737 86.3433 148.1C85.4885 148.482 84.5625 148.68 83.6259 148.68C82.6893 148.68 81.7633 148.482 80.9085 148.1C80.1743 147.736 79.5376 147.203 79.0514 146.544C78.5782 145.898 78.2277 145.171 78.0173 144.399C77.5882 142.831 77.5882 141.176 78.0173 139.607C78.2284 138.835 78.5789 138.108 79.0514 137.461C79.5382 136.804 80.1749 136.273 80.9085 135.912C81.7633 135.529 82.6893 135.331 83.6259 135.331C84.5625 135.331 85.4885 135.529 86.3433 135.912C87.077 136.273 87.7137 136.804 88.2004 137.461C88.6733 138.107 89.0238 138.834 89.2345 139.606C89.6676 141.174 89.6676 142.83 89.2345 144.397V144.402Z" fill="#3CAF87"/>
<path d="M116.056 135.092C115.16 133.964 113.988 133.086 112.653 132.545C109.02 131.235 105.043 131.235 101.41 132.545C100.073 133.085 98.8992 133.963 98.0023 135.092C97.2478 136.081 96.701 137.212 96.3946 138.417C95.8131 140.772 95.8131 143.234 96.3946 145.589C96.7005 146.795 97.2474 147.926 98.0023 148.914C98.8962 150.045 100.068 150.923 101.404 151.465C105.037 152.775 109.013 152.775 112.646 151.465C113.982 150.923 115.155 150.045 116.049 148.914C116.803 147.925 117.35 146.794 117.657 145.589C118.236 143.234 118.236 140.773 117.657 138.417C117.351 137.213 116.807 136.082 116.056 135.092ZM112.641 144.402C112.431 145.174 112.08 145.901 111.607 146.547C111.12 147.204 110.483 147.736 109.75 148.1C108.895 148.482 107.969 148.68 107.032 148.68C106.096 148.68 105.17 148.482 104.315 148.1C103.581 147.737 102.944 147.205 102.458 146.547C101.984 145.902 101.634 145.175 101.424 144.402C100.991 142.835 100.991 141.179 101.424 139.611C101.635 138.839 101.985 138.112 102.458 137.466C102.945 136.809 103.581 136.278 104.315 135.917C105.17 135.534 106.096 135.336 107.032 135.336C107.969 135.336 108.895 135.534 109.75 135.917C110.483 136.279 111.12 136.81 111.607 137.466C112.079 138.112 112.43 138.839 112.641 139.611C113.07 141.179 113.07 142.834 112.641 144.402Z" fill="#3CAF87"/>
<path d="M132.753 146.349L127.469 132.114H120.367V151.89H125.052V136.046H125.102L130.734 151.889H134.773L140.405 136.046H140.455V151.889H145.144V132.114H138.038L132.753 146.349Z" fill="#3CAF87"/>
<path d="M62.2889 140.728L57.677 132.114H51.9944L59.8715 144.992V151.889H64.7062V145.238L62.2872 140.721L62.2889 140.728Z" fill="#3CAF87"/>
</svg>
