<svg width="201" height="201" viewBox="0 0 201 201" fill="none" xmlns="http://www.w3.org/2000/svg">
<path d="M200.929 100.466C200.929 113.956 198.278 126.822 193.452 138.566C181.795 166.991 157.468 188.907 127.496 197.247C125.449 197.829 123.358 198.346 121.247 198.777C114.546 200.2 107.586 200.932 100.475 200.932C96.9199 200.932 93.4076 200.76 89.9385 200.393C87.676 200.156 85.4351 199.833 83.2158 199.445C80.2853 198.928 77.4196 198.303 74.5753 197.549C70.7399 196.536 66.9691 195.286 63.3276 193.821C54.9026 190.48 47.0378 186.02 39.9056 180.632C28.5502 172.055 19.0909 161.108 12.2389 148.544C4.43873 134.256 0 117.878 0 100.466C0 44.9748 44.9908 0 100.475 0C155.96 0 200.929 44.9748 200.929 100.466Z" fill="#EDDDD6"/>
<path d="M127.496 197.247C118.898 199.661 109.827 200.932 100.475 200.932C94.5928 200.932 88.8181 200.437 83.2158 199.445C80.2853 198.928 77.4196 198.303 74.5753 197.549C70.7399 196.536 66.9691 195.286 63.3276 193.821L70.4598 121.994L109.353 112.814L124.824 117.404L127.496 197.247Z" fill="#F7734F"/>
<path d="M76.3312 49.1535C76.3312 49.1535 61.5734 30.9653 65.5619 28.5625C69.5503 26.1597 73.3275 29.8275 73.3275 29.8275C73.3275 29.8275 103.408 25.0843 114.386 28.2026C125.364 31.3209 132.71 49.2893 132.71 49.2893C132.71 49.2893 138.213 48.7785 140.542 56.2844C142.872 63.7903 126.677 100.714 116.334 98.7832C105.987 96.848 76.3312 49.1535 76.3312 49.1535Z" fill="black"/>
<path d="M116.211 92.8333L116.72 117.952C116.72 117.952 112.337 125.264 97.6676 126.755C86.741 127.867 82.8452 125.469 82.8452 125.469L84.1144 112.715L85.3685 100.279L111.781 93.9064L116.211 92.8333Z" fill="#FCA397"/>
<path d="M111.779 93.9084C111.729 94.5959 111.486 95.4105 111.098 96.3479C105.73 109.009 90.4209 112.026 84.1118 112.719L85.3659 100.283L111.779 93.9084Z" fill="black"/>
<path d="M78.6087 43.1388C78.6087 43.1388 66.0639 74.8992 71.6145 92.2922C77.165 109.685 93.0713 106.347 102.524 102.61C111.979 98.8715 116.213 92.8396 116.213 92.8396C116.213 92.8396 125.267 95.5527 130.952 87.0211C136.638 78.4873 132.613 69.0656 127.426 67.0593C122.24 65.053 116.299 68.9579 116.299 68.9579L120.736 59.7C120.736 59.7 99.0593 14.2274 78.6087 43.1388Z" fill="#FCA397"/>
<path d="M78.6089 43.1389C78.6089 43.1389 88.3828 39.2038 92.5543 42.6518C96.7259 46.0998 101.643 75.2161 116.302 68.9558C130.96 62.6977 123.378 44.0418 123.378 44.0418C123.378 44.0418 86.506 12.4668 78.6089 43.1389Z" fill="black"/>
<path d="M84.1207 112.728C84.1207 112.728 79.5311 155.095 74.5752 197.549C47.7057 190.416 25.2749 172.422 12.2388 148.544C20.2113 140.183 32.9673 126.197 43.978 121.736C63.1982 113.935 84.1207 112.728 84.1207 112.728Z" fill="#507849"/>
<path d="M94.5214 128.054C88.0249 128.054 82.9785 126.634 82.5411 126.507C81.9701 126.341 81.6426 125.744 81.8063 125.173C81.9722 124.6 82.5755 124.264 83.1401 124.436C83.3556 124.499 104.64 130.459 115.896 117.256C116.286 116.803 116.965 116.751 117.415 117.133C117.868 117.521 117.922 118.2 117.538 118.652C111.078 126.231 101.873 128.054 94.5214 128.054Z" fill="white"/>
<path d="M193.452 138.566C181.795 166.991 157.468 188.907 127.495 197.247C125.448 197.829 123.358 198.346 121.247 198.777C118.187 165.655 116.571 107.513 116.571 107.513C116.571 107.513 160.096 105.142 193.452 138.566Z" fill="#507849"/>
<path d="M117.426 82.9653C117.157 82.9653 116.888 82.8661 116.676 82.6636C116.25 82.2498 116.237 81.5688 116.65 81.14L124.563 72.9445C124.974 72.5178 125.657 72.5049 126.086 72.9165C126.513 73.3303 126.526 74.0112 126.112 74.4401L118.2 82.6355C117.989 82.8554 117.708 82.9653 117.426 82.9653Z" fill="black"/>
<path d="M128.127 80.9634C128.038 80.9634 127.946 80.9526 127.855 80.9289L121.025 79.1446C120.447 78.9937 120.103 78.4054 120.256 77.83C120.404 77.2568 120.988 76.912 121.568 77.0607L128.398 78.845C128.976 78.9959 129.321 79.5842 129.168 80.1596C129.043 80.6445 128.607 80.9634 128.127 80.9634Z" fill="black"/>
<path d="M76.5359 57.405C76.3053 57.405 76.077 57.3339 75.8831 57.1852C75.4176 56.8253 75.3207 56.1701 75.6698 55.6982C75.7538 55.5818 77.8137 52.901 82.9937 53.6467C83.5819 53.7329 83.9913 54.2781 83.9073 54.8664C83.8211 55.4568 83.2608 55.8577 82.6877 55.7801C78.8609 55.2198 77.4453 56.9223 77.3892 56.9955C77.1759 57.2627 76.857 57.405 76.5359 57.405Z" fill="black"/>
<path d="M100.197 57.7044C99.9535 57.7044 99.7078 57.6225 99.5074 57.4545C96.7386 55.1464 93.5388 55.9934 93.5108 56.002C92.9355 56.1593 92.3451 55.8231 92.1856 55.252C92.0262 54.6788 92.3624 54.084 92.9355 53.9246C93.1144 53.8793 97.26 52.7695 100.889 55.7994C101.345 56.1809 101.406 56.8597 101.024 57.3165C100.811 57.573 100.503 57.7044 100.197 57.7044Z" fill="black"/>
<path d="M77.579 69.9234C76.8981 69.8716 76.4542 69.3523 76.5038 68.7596L76.98 62.9131C77.0252 62.3205 77.523 61.8981 78.1414 61.9261C78.7318 61.9735 79.1757 62.495 79.1261 63.0877L78.6499 68.9342C78.6046 69.4945 78.1327 69.9234 77.579 69.9234Z" fill="black"/>
<path d="M94.8729 70.6366C94.192 70.5849 93.7482 70.0655 93.7977 69.4729L94.2739 63.6242C94.3213 63.0316 94.8212 62.6049 95.4353 62.6372C96.0257 62.6868 96.4674 63.2061 96.42 63.7988L95.9438 69.6474C95.8986 70.2099 95.4288 70.6366 94.8729 70.6366Z" fill="black"/>
<path d="M81.7785 83.8835C81.367 83.8835 80.9748 83.6464 80.796 83.2456C77.1308 75.0394 82.6275 68.4257 82.8623 68.1477C83.2459 67.6951 83.9225 67.637 84.3771 68.0227C84.8318 68.4063 84.8878 69.0851 84.5043 69.5398C84.3039 69.7769 79.6604 75.4208 82.7611 82.3642C83.0046 82.9094 82.7611 83.5452 82.2181 83.7887C82.0738 83.8533 81.9251 83.8835 81.7785 83.8835Z" fill="black"/>
<path d="M88.6196 89.1373C88.0271 89.1373 87.5466 88.6567 87.5444 88.0641C87.5423 87.4715 88.0228 86.9866 88.6154 86.9823C88.7705 86.9801 92.4206 86.9176 93.7329 83.7821C93.9613 83.2326 94.5883 82.9718 95.142 83.2024C95.6915 83.433 95.9479 84.0644 95.7173 84.6118C93.847 89.0877 88.8308 89.1373 88.6196 89.1373Z" fill="black"/>
</svg>
