<svg width="28" height="40" viewBox="0 0 28 40" fill="none" xmlns="http://www.w3.org/2000/svg">
<path d="M8.00001 26.6564C5.12806 25.2937 2.8052 22.994 1.4134 20.1355C0.0215945 17.277 -0.35628 14.0298 0.341912 10.9279C1.0401 7.826 2.77279 5.05412 5.25505 3.06806C7.73731 1.082 10.8213 0 14 0C17.1787 0 20.2627 1.082 22.7449 3.06806C25.2272 5.05412 26.9599 7.826 27.6581 10.9279C28.3563 14.0298 27.9784 17.277 26.5866 20.1355C25.1948 22.994 22.8719 25.2937 20 26.6564V31.9978H8.00001V26.6564ZM8.00001 33.9984H20V36.9992C20 38.6596 18.66 40 17 40H11C10.2044 40 9.44129 39.6838 8.87868 39.1211C8.31608 38.5583 8.00001 37.7951 8.00001 36.9992V33.9984ZM12 23.7956V27.9967H16V23.7956C18.4281 23.2998 20.5856 21.9199 22.0544 19.9234C23.5231 17.9268 24.1984 15.4559 23.9494 12.9896C23.7003 10.5233 22.5446 8.23741 20.7063 6.57503C18.868 4.91265 16.4782 3.99224 14 3.99224C11.5218 3.99224 9.13197 4.91265 7.2937 6.57503C5.45543 8.23741 4.29973 10.5233 4.05065 12.9896C3.80157 15.4559 4.47687 17.9268 5.94561 19.9234C7.41436 21.9199 9.57192 23.2998 12 23.7956Z" fill="white"/>
</svg>
